<?xml version="1.0" encoding="utf-8"?>
<!-- Generated by IcoMoon.io -->
<!DOCTYPE svg PUBLIC "-//W3C//DTD SVG 1.1//EN" "http://www.w3.org/Graphics/SVG/1.1/DTD/svg11.dtd">
<svg version="1.1" xmlns="http://www.w3.org/2000/svg" xmlns:xlink="http://www.w3.org/1999/xlink" width="53" height="50" viewBox="0 0 53 50">
<g>
	<line stroke-width="1" x1="" y1="" x2="" y2="" stroke="#449FDB" opacity=""></line>
</g>
	<path d="M43.459 45.021c-0.6 0-1.2-0.229-1.657-0.686-0.915-0.915-0.915-2.399 0-3.315 4.279-4.279 6.636-9.969 6.636-16.021s-2.357-11.741-6.636-16.020c-0.915-0.915-0.915-2.399 0-3.315s2.399-0.915 3.315 0c5.165 5.165 8.009 12.031 8.009 19.335s-2.844 14.17-8.009 19.335c-0.458 0.458-1.057 0.687-1.657 0.687zM35.133 40.602c-0.6 0-1.2-0.229-1.657-0.686-0.915-0.915-0.915-2.399 0-3.315 6.397-6.397 6.397-16.805 0-23.202-0.915-0.915-0.915-2.399 0-3.315s2.399-0.915 3.315 0c3.984 3.984 6.178 9.281 6.178 14.915s-2.194 10.931-6.178 14.916c-0.458 0.458-1.057 0.687-1.657 0.687zM26.808 36.183c-0.6 0-1.2-0.229-1.657-0.686-0.915-0.915-0.915-2.399 0-3.315 3.96-3.96 3.96-10.403 0-14.363-0.915-0.915-0.915-2.399 0-3.315s2.399-0.915 3.315 0c5.788 5.788 5.788 15.205 0 20.992-0.458 0.458-1.057 0.686-1.657 0.686zM19.596 3.841c1.253-1.253 2.279-0.829 2.279 0.944v40.43c0 1.772-1.025 2.197-2.279 0.944l-11.784-11.784h-7.813v-18.75h7.813l11.784-11.784z" fill="#00ebdf"></path>
</svg>
